<?xml version="1.0" encoding="UTF-8"?>
<!DOCTYPE svg PUBLIC "-//W3C//DTD SVG 1.1//EN" "http://www.w3.org/Graphics/SVG/1.1/DTD/svg11.dtd">
<!-- Creator: CorelDRAW -->
<svg xmlns="http://www.w3.org/2000/svg" xml:space="preserve" width="4.1977mm" height="4.4996mm" version="1.1" style="shape-rendering:geometricPrecision; text-rendering:geometricPrecision; image-rendering:optimizeQuality; fill-rule:evenodd; clip-rule:evenodd"
viewBox="0 0 13.67 14.66"
 xmlns:xlink="http://www.w3.org/1999/xlink"
 xmlns:xodm="http://www.corel.com/coreldraw/odm/2003">
 <defs>
  <style type="text/css">
   <![CDATA[
    .fil0 {fill:#FEFEFE}
   ]]>
  </style>
 </defs>
 <g id="Camada_x0020_1">
  <metadata id="CorelCorpID_0Corel-Layer"/>
  <path class="fil0" d="M10.8 13.23c-0.27,-1.15 1.41,-1.38 1.6,-0.4 0.22,1.13 -1.39,1.32 -1.6,0.4zm-6.51 -0.06c-0.19,-1.12 1.5,-1.35 1.63,-0.28 0.13,1.1 -1.45,1.29 -1.63,0.28zm-0.21 -4.34c-1.28,0 -1.03,-1.05 -1.03,-2.14 0,-1.04 0,-2.07 0,-3.11l9.78 1.36 0.01 2.9c0,0.67 -0.35,1 -1.02,1l-7.74 0zm-0.5 3.3l0.1 0.05 -0.06 0.09c-0.81,2.19 1.84,3.19 2.85,1.63 0.4,-0.61 0.28,-1.06 0.06,-1.71l3.63 0c-0.25,0.83 -0.34,1.32 0.23,1.96 0.96,1.08 3.17,0.31 2.81,-1.44 -0.13,-0.66 -0.68,-1.22 -1.38,-1.31 -1.18,-0.15 -6.9,0.11 -8.01,-0.03 -0.92,-0.12 -0.76,-1.03 -0.76,-1.93 0.94,0.35 2.22,0.21 3.27,0.21 1.19,0 2.37,0 3.56,0 0.99,0 2.47,0.19 3.15,-0.37 0.83,-0.69 0.63,-1.64 0.63,-2.93 0,-2.39 0.23,-2.09 -1.21,-2.29 -1.04,-0.14 -2.08,-0.29 -3.12,-0.43 -2.09,-0.29 -4.17,-0.55 -6.25,-0.86 -0.23,-1.1 0.37,-1.55 -0.5,-1.91 -0.57,-0.24 -1.13,-0.47 -1.7,-0.71 -0.3,-0.13 -0.68,-0.27 -0.82,0.06 -0.19,0.42 0.16,0.54 0.45,0.66 0.58,0.25 1.15,0.48 1.73,0.73 0.04,2.88 -0.07,6.11 0,8.88 0.02,0.88 0.57,1.56 1.34,1.66z"/>
 </g>
</svg>
