<?xml version="1.0" encoding="UTF-8"?>
<!DOCTYPE svg PUBLIC "-//W3C//DTD SVG 1.1//EN" "http://www.w3.org/Graphics/SVG/1.1/DTD/svg11.dtd">
<!-- Creator: CorelDRAW -->
<svg xmlns="http://www.w3.org/2000/svg" xml:space="preserve" width="55.0373mm" height="61.9631mm" version="1.1" style="shape-rendering:geometricPrecision; text-rendering:geometricPrecision; image-rendering:optimizeQuality; fill-rule:evenodd; clip-rule:evenodd"
viewBox="0 0 3393.86 3820.94"
 xmlns:xlink="http://www.w3.org/1999/xlink"
 xmlns:xodm="http://www.corel.com/coreldraw/odm/2003">
 <defs>
  <style type="text/css">
   <![CDATA[
    .fil0 {fill:#0DAB77}
    .fil2 {fill:#10453B}
    .fil4 {fill:#1C6150}
    .fil1 {fill:#3BB289}
    .fil3 {fill:white}
   ]]>
  </style>
 </defs>
 <g id="Camada_x0020_1">
  <metadata id="CorelCorpID_0Corel-Layer"/>
  <g id="_1483288720528">
   <path class="fil0" d="M764.7 2458.21l168.54 -9.79c34.95,457.84 311.7,794.05 761.55,791.47 334.59,-1.91 565.2,-198.11 686.37,-469.33 57.51,-128.72 37.07,-198.54 74.9,-312.41l160.38 -9.57c-23.62,310.32 -99.19,504.44 -271.55,679 -150.31,152.22 -353.4,286.47 -650.21,288.3 -131.46,0.81 -271.97,-34.03 -376.77,-82.95 -100.11,-46.73 -219.77,-137.29 -279.76,-199.31 -154.72,-159.96 -245.15,-382.59 -273.45,-675.41zm2456.11 -412.98c-153.05,39.68 -718.22,3.69 -935.11,11.7l-503.65 0.28 -1173.73 5.36c27.94,-126.67 60.42,-110.3 125.84,-194.47 100.61,-129.45 66.51,-63.78 136.03,-193.62 115.48,17.11 335.27,154.03 608.96,62.66l30.65 -11.44c240.54,-98.59 123.43,-144.02 302.15,-196.09 -51.68,-153.6 -48.73,-232.62 -130.27,-365.91 -362.73,-592.99 -1225.88,-561.88 -1535.82,70.42 -60.85,124.13 -94.15,260.59 -89.3,417.47 4.92,158.9 73.5,270.64 104.42,401.37l-152.28 0c-39.7,201.03 65.48,544.69 133.57,714.42 145.2,361.9 495.12,729.97 846.4,893.99 1125.7,525.61 2371.34,-309.48 2394.97,-1596.31l-162.83 -19.84z"/>
   <path class="fil1" d="M1811.95 1529.62c-178.72,52.06 -61.61,97.5 -302.15,196.09l-30.65 11.44c-273.7,91.37 -493.48,-45.56 -608.96,-62.66 -69.51,129.84 -35.41,64.17 -136.03,193.62 -65.42,84.17 -97.9,67.79 -125.84,194.47l1173.73 -5.36 901.58 -806.11c55.74,-19.24 23.39,-1.36 37.56,-51.92 -38.37,-215.21 56.56,-345.22 -83.96,-731.12 -58.77,-161.39 -215.48,-408.42 -333.43,-468.06l-474.54 584.63c85.87,152.34 191.65,217.74 172.85,500.85 -11.99,180.46 -95.53,351.03 -190.15,444.13z"/>
   <path class="fil2" d="M2721.19 1199.18c-14.17,50.55 18.18,32.68 -37.56,51.92 13.26,19.84 24.02,12.68 6.35,99.22 -1.23,5.99 -3.5,11.52 -5.01,17.53 -1.52,6.04 -3.65,11.49 -5.34,17.53 -1.69,6.03 -3.5,11.54 -5.26,17.54l-38.04 117.26c-1.88,5.09 -4.27,10.67 -6.12,15.71 -1.84,4.98 -4.16,10.62 -5.95,15.58l-185.7 343.98c-13.99,18.78 -27.58,51.68 -55.94,90.75 -27.13,37.38 -9.16,20.36 -45.95,46.68 -48.31,34.57 26.02,-1.73 -50.97,24.05 216.89,-8 782.06,27.98 935.11,-11.7 100.29,-215.52 193.58,-339.9 169.1,-655.72 -19.23,-248.19 -127.42,-414.6 -240.44,-557.42 -99.27,61.89 -126.03,111.32 -216.45,185.56 -61.4,50.41 -157.07,145.26 -211.84,181.53z"/>
   <path class="fil3" d="M1694.79 3239.89c-449.85,2.58 -726.6,-333.62 -761.55,-791.47l-168.54 9.79c28.29,292.82 118.73,515.45 273.45,675.41 59.99,62.02 179.65,152.58 279.76,199.31 104.81,48.92 245.31,83.76 376.77,82.95 296.8,-1.83 499.9,-136.08 650.21,-288.3 172.37,-174.56 247.94,-368.69 271.55,-679l-160.38 9.57c-37.84,113.88 -17.4,183.69 -74.9,312.41 -121.17,271.22 -351.79,467.42 -686.37,469.33z"/>
   <path class="fil4" d="M1782.05 2057.21l503.65 -0.28c76.99,-25.78 2.66,10.52 50.97,-24.05 36.78,-26.32 18.82,-9.3 45.95,-46.68 28.36,-39.08 41.95,-71.98 55.94,-90.75l185.7 -343.98c1.79,-4.96 4.11,-10.6 5.95,-15.58 1.86,-5.04 4.24,-10.62 6.12,-15.71l38.04 -117.26c1.76,-6 3.57,-11.51 5.26,-17.54 1.69,-6.04 3.82,-11.49 5.34,-17.53 1.52,-6.01 3.79,-11.54 5.01,-17.53 17.67,-86.54 6.91,-79.38 -6.35,-99.22l-901.58 806.11z"/>
  </g>
 </g>
</svg>
