<?xml version="1.0" encoding="UTF-8"?>
<!DOCTYPE svg PUBLIC "-//W3C//DTD SVG 1.1//EN" "http://www.w3.org/Graphics/SVG/1.1/DTD/svg11.dtd">
<!-- Creator: CorelDRAW -->
<svg xmlns="http://www.w3.org/2000/svg" xml:space="preserve" width="37.6388mm" height="10.2362mm" version="1.1" style="shape-rendering:geometricPrecision; text-rendering:geometricPrecision; image-rendering:optimizeQuality; fill-rule:evenodd; clip-rule:evenodd"
viewBox="0 0 812.79 221.05"
 xmlns:xlink="http://www.w3.org/1999/xlink"
 xmlns:xodm="http://www.corel.com/coreldraw/odm/2003">
 <defs>
  <style type="text/css">
   <![CDATA[
    .fil0 {fill:#0DAB77}
    .fil3 {fill:#14483E}
    .fil1 {fill:#1C1A38}
    .fil2 {fill:#3BB289}
    .fil4 {fill:#FEFEFE}
   ]]>
  </style>
 </defs>
 <g id="Camada_x0020_1">
  <metadata id="CorelCorpID_0Corel-Layer"/>
  <g id="_2235332908576">
   <path class="fil0" d="M35.43 113.81l7.4 0.03c1.47,4.89 1.15,9.19 3.24,14.46 1.65,4.16 4.74,8.58 7.03,11.18 17.95,20.32 54.36,10.69 59.47,-18.55 1.44,-8.25 -1.82,-7.18 8.5,-7.18 -0.57,16.17 -7.43,28.75 -18.08,36.53 -27.45,20.05 -66.25,1.87 -67.55,-36.46zm113.56 -18.74c-6.28,1.37 -25.17,0.42 -33.3,0.43 -10.33,0 -23.55,-0.92 -33.45,-0.02 -14.18,0.37 -40.45,-1.68 -54.3,0.43 1.66,-3.56 1.41,-3.94 3.6,-6.26 2.26,-2.39 1.52,-1.98 3.29,-4.15 1.11,-1.35 2.23,-2.75 3.33,-4.06l4.67 -3.47c8.99,4.4 17.56,6.99 27.93,1.82l4.99 -2.56c3.12,-1.88 4.16,-5.14 7.28,-5.96 1.89,-18.9 -23.69,-44 -51.8,-35.03 -11.52,3.67 -19.72,11.3 -24.53,21.06 -7.13,14.47 -4.03,24.48 1.03,38l-7.65 -0c-1.38,31.58 18.42,60.44 44.82,73.92 48.5,24.75 110.55,-10.41 111.65,-73.69l-7.55 -0.47z"/>
   <path class="fil1" d="M603.09 100.42c30.51,-5.02 35.56,44.26 8.97,50.63 -7.36,1.76 -14.4,-0.56 -19.39,-3.93 -7,-4.73 -6.31,-6.33 -6.31,-16.43 -0.01,-12.46 -4.81,-26.72 16.74,-30.26zm-16.81 60.43c3.98,0.45 19.76,21.75 46.41,7.52 28.21,-15.07 28.61,-69.38 -0.14,-85.14 -25.59,-14.02 -42.52,7.17 -46.04,7.22l-1.19 -8.07c-5.35,-1.61 -14.79,-1.6 -18.89,1.51 -4.84,3.68 -4.07,11.37 -4.04,17.82l-0.14 86.1c0.11,7.11 1.21,13.11 6.45,15.59 4.71,2.23 12.99,2.18 17.54,0.19l0.05 -42.74z"/>
   <path class="fil1" d="M532.52 131.51c-5.73,30.53 -36.89,19.64 -41.66,10.64 -1.88,-3.55 -0.71,-18.01 -0.78,-23.06 -0.15,-9.89 1.01,-11.57 7.59,-15.39 18.63,-10.82 39.37,3.72 34.85,27.81zm-42.33 -40.03c-0.21,-1.99 -0.03,-2.98 -0.1,-4.74 -0.14,-3.75 -0.22,-3.58 -1.53,-4.64 -2.67,-2.17 -14.46,-0.49 -17.16,1.11 -5.54,3.28 -5.44,8.46 -5.42,16.01 0.04,14.35 -0,28.7 0,43.05 0.01,14.35 0.04,28.7 0.01,43.05 -0.02,6.84 -0.63,13.17 4.46,16.95 3.52,2.61 13.96,3.72 19.08,1.74 1.96,-8.1 0.07,-33 0.57,-43.36 3.36,1.07 6.95,8.23 19.82,11.26 25.24,5.93 47.24,-13.39 47.57,-45.36 0.43,-42.67 -38.57,-62.92 -67.29,-35.06z"/>
   <path class="fil1" d="M350.51 170.95c1.74,-5.08 0.75,-32.84 0.73,-40.26 -0.03,-10.83 1.33,-30.5 -2.95,-38.88 -4.42,-8.67 -15.35,-13.46 -28.97,-12.84 -13.07,0.6 -21.56,6.85 -28.53,12.38 -0.75,-7.34 -0.17,-17.58 -0.16,-25.24 0.03,-21.77 1.62,-18.96 -6.88,-18.6 -20.84,0.87 -17.17,5.23 -17.19,35.16 -0.01,17.39 -0,34.77 0,52.16 0,7.21 -0.72,19.55 0.23,26.16 1.23,8.51 7.46,10.06 16.13,10.23 9.31,0.18 7.74,2.42 7.75,-18.17 0,-8.82 0.06,-17.68 -0.06,-26.49 -0.14,-9.83 -1.62,-16.51 4.91,-21.34 4.88,-3.61 13.4,-6.63 21.07,-4.86 14.63,3.39 11.02,25.35 11.03,41.11 0.01,20.82 -2.85,33.18 22.89,29.5z"/>
   <path class="fil1" d="M403.19 100.69c30.72,-7.52 38.03,43.52 10.92,50.2 -32.05,7.89 -39.28,-43.26 -10.92,-50.2zm-41.24 34.96c4.62,24.15 26.16,41.43 55.75,36.27 59.27,-10.34 46.03,-103.7 -18.69,-92.3 -24.33,4.29 -42.79,26.07 -37.07,56.02z"/>
   <path class="fil1" d="M685.8 116.07c-0.6,-4.79 3.74,-10.96 6.02,-12.76 13.64,-10.77 37.24,-2.65 36.46,13.23 -5.78,0.69 -38.51,1.11 -42.47,-0.47zm56.58 17.87c9.99,0 9.3,-3.44 8.04,-12.95 -0.83,-6.28 -2.28,-11.45 -4.57,-16.94 -13.22,-31.62 -58.29,-35.69 -79.36,-2.07 -13.48,21.52 -3.26,51.59 11.94,62.01 25.1,17.22 61.94,5.27 64.2,-3.51 0.06,-4.74 -5.09,-11.89 -7.7,-14.8 -4.14,0.37 -10.62,8.99 -28.18,7.45 -14.66,-1.29 -29.57,-19.23 -9.9,-19.25l45.53 0.06z"/>
   <path class="fil1" d="M178.93 158.83c7.16,12.38 56.22,24.01 73.6,0.25 9.14,-12.49 6.69,-33.85 -17.23,-41.21 -7.88,-2.43 -20.32,-3.74 -27.02,-6.91 -10.75,-5.08 -0.1,-14.02 12.44,-13.22 14.43,0.92 19.19,7.77 24.44,9.96 3.56,-9.84 13.16,-16.33 -3.17,-23.87 -9.13,-4.22 -22.33,-6.16 -33.42,-4.2 -10.65,1.88 -19.5,7.5 -23.54,14.44 -5.58,9.59 -3.93,22.83 2.2,29.65 12.41,13.81 60.85,11.8 44.47,26.94 -7.38,6.82 -22.99,2.87 -30.56,-1.08 -11.21,-5.84 -17.91,-4.12 -22.2,9.25z"/>
   <path class="fil2" d="M83.02 71.28c-3.12,0.81 -4.16,4.08 -7.28,5.96l-4.99 2.56c-10.37,5.17 -18.94,2.58 -27.93,-1.82l-4.67 3.47c-1.1,1.31 -2.23,2.71 -3.33,4.06 -1.77,2.16 -1.04,1.76 -3.29,4.15 -2.19,2.32 -1.94,2.7 -3.6,6.26 13.85,-2.11 40.12,-0.06 54.3,-0.43l21.67 -18.82c3.88,-3.39 7.01,-6.3 10.78,-9.84l7.88 -7c0.34,-0.22 1.47,1.5 2.6,-3.2 1.36,-26.81 0.32,-36.47 -17.73,-56.62 -2.78,1.8 -13.47,15.65 -17.14,20.02 -2.22,2.65 -3.57,4.74 -5.87,7.03 3.48,5.85 8.88,9.89 8.35,22.53 -0.25,6.1 -3.55,18.62 -9.75,21.7z"/>
   <path class="fil1" d="M783.34 82.28c-3.23,-1.91 -12.13,-1.64 -16.67,-0.18 -5.7,1.83 -6.47,6.73 -6.5,12.98 -0.05,12.41 0.01,24.85 0.02,37.26 0.02,33.1 -3.6,38.95 18.72,38.97 6.46,0 5.12,-1.16 5.06,-13.3 -0.06,-12.64 -0.26,-25.5 -0.04,-38.12 0.22,-12.5 6.82,-16.96 18.95,-18.05 8.38,-0.75 9.8,-0.12 9.75,-9.2 -0.03,-5.27 1.55,-14.37 -4.48,-13.77 -9.99,0.99 -21.13,12.04 -24.01,12.75 -0.1,-4.08 0.79,-6.07 -0.79,-9.34z"/>
   <path class="fil3" d="M125.16 56.62c-1.13,4.7 -2.26,2.98 -2.6,3.2l-7.88 7c-3.77,3.54 -6.9,6.45 -10.78,9.84l-21.67 18.82c9.9,-0.9 23.12,0.02 33.45,0.02 8.13,-0 27.02,0.94 33.3,-0.43 1.65,-4.11 4.15,-6.91 6.01,-12.83 4.67,-14.93 1.07,-33.46 -9.51,-43.33l-20.33 17.71z"/>
   <path class="fil4" d="M46.07 128.29c-2.09,-5.27 -1.76,-9.56 -3.24,-14.46l-7.4 -0.03c1.3,38.33 40.11,56.51 67.55,36.46 10.66,-7.78 17.51,-20.36 18.08,-36.53 -10.32,0 -7.06,-1.07 -8.5,7.18 -5.11,29.25 -41.52,38.87 -59.47,18.55 -2.29,-2.6 -5.38,-7.02 -7.03,-11.18z"/>
   <path class="fil0" d="M678.85 220.37c-0.01,-9.21 -2.49,-22.34 6.75,-23.93 9.16,-1.58 6.44,17.12 6.45,23.83l6.17 -0.31c-0,-8.08 -2.5,-22.63 7.1,-23.65 9.02,-0.97 6.11,17.11 6.12,24.02l6.18 -0.07c-0.02,-6.58 0.98,-20.91 -1.8,-25.73 -1.89,-3.28 -5.42,-4.63 -10.54,-3.35 -3.87,0.96 -5.04,3.45 -7.55,5.53 -1.83,-3.69 -2.64,-5.8 -8.33,-5.9 -5.14,-0.1 -7.83,1.78 -9.55,4.99 -0.93,-1 -1.56,-1.26 -2.04,-4.48l-5.18 -0.08 0.03 29.14 6.18 0z"/>
   <path class="fil0" d="M745.72 196.67c11.17,-4.85 15.83,14.13 6.12,18.02 -12.3,4.93 -17.01,-13.3 -6.12,-18.02zm-6.22 18.85c9.75,10.81 24.52,3.32 24.02,-10.35 -0.38,-10.43 -10.6,-21.59 -23.48,-9.13l-0.05 -16.8 -6.18 0 0.08 41.01 5.41 -0 0.19 -4.73z"/>
   <path class="fil0" d="M650.78 196.81c10.66,-4.78 16.29,14.32 5.49,18.33 -10,3.71 -17.49,-12.95 -5.49,-18.33zm17.39 12.52c4.85,-20.01 -25.48,-25.84 -29.45,-6.84 -4.17,19.94 24.83,25.9 29.45,6.84z"/>
   <path class="fil0" d="M631.45 211.9c-2.67,1.55 -6.55,5.72 -11.8,2.65 -3.61,-2.11 -5.69,-6.93 -4.2,-12.13 1.11,-3.84 5.47,-7.37 10.57,-5.9 4.37,1.26 4.27,6.02 10.12,1.22 -5.49,-11.94 -28.36,-8.25 -27.46,9.12 0.83,15.89 23.1,18.99 27.93,6.42l-5.16 -1.39z"/>
   <path class="fil0" d="M773.98 220.21c-0.05,-19.73 -2.79,-20.86 10.31,-24.43l-0.17 -4.99c-5.19,-0.57 -7.33,2.09 -9.63,5.25l-0.94 -2.41c-0.12,-0.56 -0.07,-1.57 -0.06,-2.37l-5.74 -0.19 0.06 29.14 6.17 0z"/>
  </g>
 </g>
</svg>
