<?xml version="1.0" encoding="UTF-8"?>
<!DOCTYPE svg PUBLIC "-//W3C//DTD SVG 1.1//EN" "http://www.w3.org/Graphics/SVG/1.1/DTD/svg11.dtd">
<!-- Creator: CorelDRAW -->
<svg xmlns="http://www.w3.org/2000/svg" xml:space="preserve" width="4.1642mm" height="3.8357mm" version="1.1" style="shape-rendering:geometricPrecision; text-rendering:geometricPrecision; image-rendering:optimizeQuality; fill-rule:evenodd; clip-rule:evenodd"
viewBox="0 0 18.38 16.93"
 xmlns:xlink="http://www.w3.org/1999/xlink"
 xmlns:xodm="http://www.corel.com/coreldraw/odm/2003">
 <defs>
  <style type="text/css">
   <![CDATA[
    .str0 {stroke:#373435;stroke-width:1.17;stroke-linecap:square;stroke-linejoin:round;stroke-miterlimit:22.9256}
    .fil0 {fill:none}
    .fil1 {fill:#02B718;fill-rule:nonzero}
   ]]>
  </style>
 </defs>
 <g id="Camada_x0020_1">
  <metadata id="CorelCorpID_0Corel-Layer"/>
  <path class="fil0 str0" d="M0.58 3.95l8.67 -3.37 8.54 3.36 -0.19 6.97c-1.23,3.15 -5.35,4.09 -8.35,5.43 -2.99,-1.38 -7.36,-2.11 -8.67,-5.43l0 -6.97z"/>
  <g>
   <path class="fil1" d="M4.14 8.03c-0.26,-0.19 -0.32,-0.56 -0.13,-0.82 0.19,-0.26 0.56,-0.32 0.82,-0.13l-0.69 0.94zm4.08 2.99l-4.08 -2.99 0.69 -0.94 4.08 2.99 0.01 0.93 -0.7 0.01zm0.69 -0.94c0.26,0.19 0.32,0.56 0.13,0.82 -0.19,0.26 -0.56,0.32 -0.82,0.13l0.69 -0.94zm5.35 -3.24l-5.34 4.17 -0.72 -0.92 5.34 -4.17 0.72 0.92zm-0.72 -0.92c0.25,-0.2 0.62,-0.15 0.82,0.1 0.2,0.25 0.15,0.62 -0.1,0.82l-0.72 -0.92z"/>
  </g>
 </g>
</svg>
